<svg xmlns="http://www.w3.org/2000/svg" viewBox="0 0 63 63"><defs><style>.cls-1{fill:#fff;}</style></defs><g id="Layer_2" data-name="Layer 2"><g id="Layer_1-2" data-name="Layer 1"><g id="github"><path d="M63,31.53A31.54,31.54,0,0,1,38.68,62.24V54.08a14.48,14.48,0,0,0,.25-2.67,12.89,12.89,0,0,0-1.77-6.72c7.61-1.86,13.13-7.38,13.13-13.9A12.35,12.35,0,0,0,47,22.57h0A10.11,10.11,0,0,0,47.9,18,10.35,10.35,0,0,0,47,14.38a11.71,11.71,0,0,0-8.12,3,23.9,23.9,0,0,0-14.68-.05,10,10,0,0,0-7.91-3,11.48,11.48,0,0,0-.67,3.32,11.14,11.14,0,0,0,.71,4.52,12.49,12.49,0,0,0-3.66,8.63c0,6.59,5.65,12.16,13.4,14a11.74,11.74,0,0,0-1.28,3.09A7,7,0,0,1,20,48.5a6.92,6.92,0,0,1-3.5-2.15c-1-1.22-.63-1.71-1.66-2.65a4.32,4.32,0,0,0-3.56-1.15c-.13,0-1.06.21-1.1.6s.42.47,1.22,1.1A13.33,13.33,0,0,1,13,45.73a8.78,8.78,0,0,1,1.16,1.84c.93,1.79.68,2.1,1.29,2.89a5.26,5.26,0,0,0,2.46,1.6,9.09,9.09,0,0,0,3.68.55,13.57,13.57,0,0,0,2.86-.31,12.63,12.63,0,0,0,.21,1.76V62.3A31.53,31.53,0,1,1,63,31.53Z"/><path class="cls-1" d="M37.39,44.63a13,13,0,0,1,1.77,6.72A14.37,14.37,0,0,1,38.91,54v8.16a30.88,30.88,0,0,1-7.18.83,31.2,31.2,0,0,1-6.88-.76V54a14.34,14.34,0,0,1-.22-1.76,13.39,13.39,0,0,1-2.85.31A9.09,9.09,0,0,1,18.1,52a5.26,5.26,0,0,1-2.46-1.6c-.61-.79-.36-1.1-1.29-2.89a8.78,8.78,0,0,0-1.16-1.84,13.33,13.33,0,0,0-1.54-1.48c-.8-.63-1.26-.82-1.23-1.1s1-.58,1.11-.6a4.32,4.32,0,0,1,3.56,1.15c1,.94.64,1.43,1.66,2.64a6.89,6.89,0,0,0,3.5,2.16,7,7,0,0,0,4.81-.66,11.74,11.74,0,0,1,1.28-3.09c-7.75-1.8-13.4-7.37-13.4-14A12.47,12.47,0,0,1,16.6,22.1a11.14,11.14,0,0,1-.71-4.52,11.48,11.48,0,0,1,.67-3.32,10,10,0,0,1,7.91,3,23.69,23.69,0,0,1,7.26-1.12,23.41,23.41,0,0,1,7.42,1.18,11.67,11.67,0,0,1,8.12-3A10.35,10.35,0,0,1,48.13,18a10,10,0,0,1-.89,4.56h0a12.35,12.35,0,0,1,3.28,8.22C50.52,37.25,45,42.76,37.39,44.63Z"/></g></g></g></svg>