<svg xmlns="http://www.w3.org/2000/svg" viewBox="0 0 45.38 66.16"><defs><style>.cls-1{fill:#1d1d1b;}.cls-1,.cls-2,.cls-3{stroke:#000;stroke-miterlimit:10;}.cls-2{fill:#fff;}.cls-3{font-size:9.91px;font-family:MyriadPro-Regular, Myriad Pro;letter-spacing:0.1em;}</style></defs><g id="Layer_2" data-name="Layer 2"><g id="Layer_1-2" data-name="Layer 1"><polygon class="cls-1" points="40.31 56.46 40.61 56.46 22.69 65.6 4.77 56.46 5 56.46 0.55 11.32 44.83 11.32 40.31 56.46"/><path class="cls-2" d="M36.42,26.13H14.65q.26,2.93.53,5.84l20.35-.17L34.12,48.61,22.26,52.33l-10.8-3.89c-.35-2.95-.71-5.91-1.06-8.86h5.49c0,1.66.12,3.31.17,5L23,46.31l6-1.77q.26-3.63.53-7.26L10.4,36.93,9.16,26.13V20.92H36.42Z"/><text class="cls-3" transform="translate(8.69 8.8)">HTML</text></g></g></svg>