<svg xmlns="http://www.w3.org/2000/svg" viewBox="0 0 92.24 106.38"><defs><style>.cls-1{font-size:24.23px;font-family:MyriadPro-Regular, Myriad Pro;letter-spacing:0.1em;}.cls-2{letter-spacing:0.09em;}.cls-3{letter-spacing:0.09em;}.cls-4{stroke:#000;stroke-miterlimit:10;}</style></defs><g id="Layer_2" data-name="Layer 2"><g id="Layer_1-2" data-name="Layer 1"><text class="cls-1" transform="translate(0 62.11)">Ju<tspan class="cls-2" x="27.16" y="0">p</tspan><tspan x="43.2" y="0">y</tspan><tspan class="cls-3" x="57.03" y="0">t</tspan><tspan x="67.33" y="0">er</tspan></text><path class="cls-4" d="M81,46.67c-.51-12.81-16.34-23.09-35.8-23.09S9.93,33.86,9.41,46.67c.52-17.06,16.35-30.76,35.8-30.76S80.5,29.61,81,46.67Z"/><path class="cls-4" d="M81.78,62.1C81.27,74.25,65.44,84,46,84S10.7,74.25,10.19,62.1C10.7,78.28,26.53,91.25,46,91.25S81.27,78.28,81.78,62.1Z"/><circle class="cls-4" cx="75.34" cy="6.94" r="6.44"/><circle class="cls-4" cx="8.35" cy="15.91" r="4.6"/><circle class="cls-4" cx="12.9" cy="98.57" r="7.31"/></g></g></svg>