<svg xmlns="http://www.w3.org/2000/svg" viewBox="0 0 29.82 44.62"><defs><style>.cls-1,.cls-2{stroke:#000;stroke-miterlimit:20;}.cls-2{fill:#fff;}</style></defs><g id="Layer_2" data-name="Layer 2"><g id="Layer_1-2" data-name="Layer 1"><path class="cls-1" d="M14.89.5C7.32.5,1.1,5.76.5,12.45v0c0,1,.08,2.17.2,3.44A46.07,46.07,0,0,0,5.18,31.76a49.14,49.14,0,0,0,8.49,12.17,47.06,47.06,0,0,0,9.54-11.22,42.91,42.91,0,0,0,5.9-17h0c.1-.8.17-1.53.21-2.2C29.32,6.33,22.86.5,14.89.5Zm0,7.46c3.4,0,6.16,2.49,6.16,5.55s-2.76,5.55-6.16,5.55-6.16-2.48-6.16-5.55S11.49,8,14.89,8Z"/><circle class="cls-2" cx="14.35" cy="14.1" r="6.16" transform="translate(-2.67 24.82) rotate(-76.72)"/></g></g></svg>