<svg xmlns="http://www.w3.org/2000/svg" viewBox="0 0 76.37 76.37"><defs><style>.cls-1,.cls-2{stroke:#000;}.cls-1,.cls-2,.cls-3{stroke-miterlimit:10;}.cls-2{fill:#fff;}.cls-3{fill:none;stroke:#fff;stroke-width:2px;}</style></defs><g id="Layer_2" data-name="Layer 2"><g id="Layer_1-2" data-name="Layer 1"><g id="python"><path class="cls-1" d="M75.86,38.19A23.66,23.66,0,0,1,68.74,55.3H54.81V67.9a22.16,22.16,0,0,1-15.92,8c-10.37.35-16.65-7.1-17.35-8V55.3H8.47c-.86-.7-8.31-7-8-17.35A22.16,22.16,0,0,1,8.47,22H21.54V7.63A23.66,23.66,0,0,1,38.65.51,23.57,23.57,0,0,1,54.81,7.63V22H68.74A23.57,23.57,0,0,1,75.86,38.19Z"/><circle class="cls-2" cx="28.4" cy="12.39" r="3.21"/><circle class="cls-2" cx="47.69" cy="64.95" r="3.21"/><path class="cls-3" d="M20,56.75l.45-12.45a8.06,8.06,0,0,1,3.21-3.54,8,8,0,0,1,3.86-1c4.86-.2,9.6-.08,11.89,0l10-.33a10.7,10.7,0,0,0,4.18-3.53,12.53,12.53,0,0,0,1.93-5.47,53.72,53.72,0,0,0,.84-10.36"/><line class="cls-3" x1="40.21" y1="56.75" x2="55.63" y2="56.75"/><line class="cls-3" x1="20.69" y1="20.51" x2="36.11" y2="20.51"/></g></g></g></svg>