<svg xmlns="http://www.w3.org/2000/svg" viewBox="0 0 68.5 68.8"><defs><style>.cls-1,.cls-2{stroke:#000;stroke-miterlimit:10;}.cls-2{fill:none;}</style></defs><g id="Layer_2" data-name="Layer 2"><g id="Layer_1-2" data-name="Layer 1"><path class="cls-1" d="M51.39,54.16c0,4.4,0,8,0,10.24A7.73,7.73,0,0,1,51.11,66c-.26.86-.57,2-1.28,2.27s-1.83-.58-2.19-.91c-16.5-14.66-20.7-19.13-20.7-19.13-1.4-1.5-3.44-3.44-6.66-6.41C18.36,40,16,37.88,13.15,35.26l-1.11-1C7.6,30.21,3.9,27,1.36,24.74a2.85,2.85,0,0,1-.86-2,3.26,3.26,0,0,1,1.28-2.13c1-1,2.38-2.26,4.13-3.7a2.92,2.92,0,0,1,1.56-.43,3.53,3.53,0,0,1,2.27,1.14c.64.62,4.49,3.69,10.74,8.6C23.3,28.45,26.62,31,30.35,34c6,4.71,13.16,10.25,21,16.37C51.39,51.56,51.39,52.84,51.39,54.16Z"/><path class="cls-1" d="M51.53,17.92Q41,25.78,30.35,34c-3.73-2.91-7-5.5-9.87-7.72l8.59-8.17L45.28,3.84a9.89,9.89,0,0,1,2-2A5.59,5.59,0,0,1,49.55.51a1.16,1.16,0,0,1,.56.06,1,1,0,0,1,.46.39h0a3.84,3.84,0,0,1,.53,1.75C51.42,5.42,51.51,13,51.53,17.92Z"/><path class="cls-2" d="M51.53,17.92c0,2.19,0,3.87,0,4.4s-.08,9.66-.13,28"/><path class="cls-1" d="M12,34.25l-.16.15a61.6,61.6,0,0,0-9.53,8.25c-.77.84-1.73,2-1.56,3.41.06.53,1,1.39,2.7,3.13A21.51,21.51,0,0,0,5.62,51c1,.77,1.3.83,1.42.85,1.43.24,2.82-1.68,3.13-2.13q4.38-3.49,8.81-7l1.3-1"/><path class="cls-2" d="M51.53,17.92h0"/><path class="cls-1" d="M49.55.51,65.32,7.4A4,4,0,0,1,67.45,9a4.06,4.06,0,0,1,.43,2.7c-.32,2.34-.26,19.41,0,44.64a4.06,4.06,0,0,1,0,2,4.67,4.67,0,0,1-2,2.55C64,62.19,58.07,65,49.83,68.24"/></g></g></svg>