<svg xmlns="http://www.w3.org/2000/svg" viewBox="0 0 58.6 59.78"><defs><style>.cls-1,.cls-3{fill:#fff;}.cls-1{stroke:#fff;stroke-width:2px;}.cls-1,.cls-2,.cls-4{stroke-miterlimit:10;}.cls-2,.cls-4{stroke:#000;stroke-width:3px;}.cls-4{fill:none;}</style></defs><g id="Layer_2" data-name="Layer 2"><g id="Layer_1-2" data-name="Layer 1"><path class="cls-1" d="M41.24,43c-2.87,1.46-5.66.9-7.69.47-7.4-1.58-11.84-7.29-13.47-9.35C17.5,30.85,12.87,24.68,15,18.74a11,11,0,0,1,4.12-5.15,1.55,1.55,0,0,1,.95-.55c1.26-.17,2.46,1.74,3.56,3.56A25.72,25.72,0,0,1,26,21.44,7.6,7.6,0,0,1,24.36,23c-1.8,1.29-3.08.86-3.56,1.59-1,1.49,2.79,5.79,5.46,8.39,3.06,3,7.38,6.16,8.49,5.24.36-.3,0-.78.31-2.3.16-.84.6-3.27,2-3.88,1.14-.5,2.48.43,4.83,2.06,2.51,1.74,3.76,2.61,3.88,3.88C46,40.24,42.92,42.13,41.24,43Z"/><path class="cls-2" d="M30.11,1.5A27,27,0,0,0,6.37,41.31C5,46.68,3.56,52,2.17,57.4L16.93,52a26.71,26.71,0,0,0,13.18,3.44,27,27,0,1,0,0-54ZM41.24,43c-2.87,1.46-5.66.9-7.69.47-7.4-1.58-11.84-7.29-13.47-9.35C17.5,30.85,12.87,24.68,15,18.74a11,11,0,0,1,4.12-5.15,1.55,1.55,0,0,1,.95-.55c1.26-.17,2.46,1.74,3.56,3.56A25.72,25.72,0,0,1,26,21.44,7.6,7.6,0,0,1,24.36,23c-1.8,1.29-3.08.86-3.56,1.59-1,1.49,2.79,5.79,5.46,8.39,3.06,3,7.38,6.16,8.49,5.24.36-.3,0-.78.31-2.3.16-.84.6-3.27,2-3.88,1.14-.5,2.48.43,4.83,2.06,2.51,1.74,3.76,2.61,3.88,3.88C46,40.24,42.92,42.13,41.24,43Z"/><path class="cls-3" d="M41.24,43c-2.87,1.46-5.66.9-7.69.47-7.4-1.58-11.84-7.29-13.47-9.35C17.5,30.85,12.87,24.68,15,18.74a11,11,0,0,1,4.12-5.15,1.55,1.55,0,0,1,.95-.55c1.26-.17,2.46,1.74,3.56,3.56A25.72,25.72,0,0,1,26,21.44,7.6,7.6,0,0,1,24.36,23c-1.8,1.29-3.08.86-3.56,1.59-1,1.49,2.79,5.79,5.46,8.39,3.06,3,7.38,6.16,8.49,5.24.36-.3,0-.78.31-2.3.16-.84.6-3.27,2-3.88,1.14-.5,2.48.43,4.83,2.06,2.51,1.74,3.76,2.61,3.88,3.88C46,40.24,42.92,42.13,41.24,43Z"/><line class="cls-4" x1="16.94" y1="52.03" x2="16.93" y2="52.03"/><line class="cls-4" x1="6.37" y1="41.31" x2="6.37" y2="41.3"/></g></g></svg>