<?xml version="1.0" standalone="no"?>
<!DOCTYPE svg PUBLIC "-//W3C//DTD SVG 20010904//EN"
 "http://www.w3.org/TR/2001/REC-SVG-20010904/DTD/svg10.dtd">
<svg version="1.0" xmlns="http://www.w3.org/2000/svg"
 width="620.000000pt" height="620.000000pt" viewBox="0 0 620.000000 620.000000"
 preserveAspectRatio="xMidYMid meet">
<metadata>
Created by potrace 1.11, written by Peter Selinger 2001-2013
</metadata>
<g transform="translate(0.000000,620.000000) scale(0.100000,-0.100000)"
fill="#000000" stroke="none">
<path d="M2543 6133 c-7 -2 -13 -20 -13 -39 0 -30 3 -34 26 -34 24 0 26 3 20
31 -3 17 -6 35 -6 40 0 10 -8 10 -27 2z"/>
<path d="M2410 6100 c-6 -11 -7 -20 -2 -20 6 0 12 9 15 20 3 11 3 20 1 20 -2
0 -8 -9 -14 -20z"/>
<path d="M2207 6063 c-5 -10 19 -122 39 -179 12 -34 19 -41 35 -37 18 5 19 7
4 29 -8 13 -13 24 -10 24 3 0 0 10 -6 23 -7 12 -16 42 -21 67 -4 25 -10 52
-11 59 -4 17 -23 26 -30 14z"/>
<path d="M2318 6063 c-27 -2 -48 -7 -48 -12 0 -20 29 -42 62 -47 34 -6 38 -4
48 21 10 26 6 47 -8 43 -4 -1 -28 -3 -54 -5z"/>
<path d="M2993 6033 c-4 -11 1 -21 15 -31 l22 -14 -23 -18 c-20 -17 -20 -20
-7 -34 8 -9 30 -18 48 -22 29 -6 32 -4 32 18 0 13 -9 41 -20 63 -28 54 -55 70
-67 38z"/>
<path d="M2625 6000 c-3 -5 -1 -10 4 -10 6 0 11 5 11 10 0 6 -2 10 -4 10 -3 0
-8 -4 -11 -10z"/>
<path d="M2383 5981 c-5 -3 -16 -18 -25 -32 -16 -26 -16 -28 11 -58 19 -21 27
-39 23 -53 -6 -25 -57 -57 -81 -51 -25 6 -47 -23 -32 -41 8 -9 8 -16 2 -20 -6
-4 -8 -13 -5 -20 8 -20 -14 -30 -31 -16 -11 9 -15 9 -15 1 0 -6 -6 -11 -12
-11 -7 -1 -23 -9 -35 -19 -29 -24 -32 -100 -6 -131 23 -27 83 -27 106 0 19 22
67 27 67 8 0 -10 2 -10 9 0 6 10 10 10 20 -1 17 -21 3 -48 -23 -45 -17 2 -23
-4 -30 -34 -5 -21 -12 -38 -15 -38 -4 0 -13 15 -20 32 l-15 33 -8 -33 c-7 -27
-13 -32 -38 -32 -17 0 -30 -4 -30 -9 0 -6 -41 -38 -90 -72 -50 -34 -101 -74
-114 -90 -27 -32 -51 -37 -60 -13 -7 17 -32 16 -109 -4 -35 -9 -39 -8 -47 11
-6 16 -4 26 9 37 17 15 19 53 5 118 -5 27 -43 45 -62 29 -18 -15 -27 -1 -15
26 8 16 7 25 -3 35 -7 7 -11 19 -7 27 7 20 -21 51 -53 59 -13 4 -24 10 -24 15
0 16 30 41 48 41 10 0 23 9 29 19 10 16 9 24 -8 45 -17 22 -28 26 -73 26 l-53
0 -7 -46 c-3 -26 -6 -77 -6 -115 0 -37 -5 -71 -10 -74 -7 -4 -7 -12 0 -25 13
-25 13 -26 -7 -27 -16 -1 -18 10 -20 90 -3 136 -10 173 -37 191 -23 14 -28 12
-115 -45 -50 -33 -91 -67 -91 -75 0 -8 -4 -13 -8 -10 -5 3 -7 -7 -4 -22 2 -15
-3 -40 -12 -56 l-15 -29 -3 49 -3 49 -45 -43 c-25 -24 -39 -41 -32 -37 8 4 12
-2 12 -20 0 -18 6 -29 20 -32 13 -3 20 -14 20 -29 0 -15 6 -24 16 -24 10 0 14
6 11 14 -3 8 -2 27 2 43 7 27 8 26 20 -23 7 -27 22 -62 35 -77 21 -24 24 -25
39 -9 25 24 35 6 40 -73 2 -40 14 -93 27 -125 12 -30 26 -65 30 -77 13 -32
-16 -53 -75 -53 -39 0 -54 5 -76 26 -15 14 -32 23 -38 20 -16 -10 -13 -52 4
-66 8 -7 15 -18 15 -24 0 -6 7 -24 15 -39 8 -15 14 -42 13 -60 0 -18 9 -53 21
-79 11 -26 21 -54 21 -63 0 -8 6 -18 14 -21 16 -6 41 -98 31 -114 -11 -18 -43
33 -55 86 -6 27 -17 55 -24 64 -8 8 -17 25 -21 38 -8 27 -31 24 -28 -4 1 -10
8 -71 15 -134 13 -120 13 -145 3 -220 -5 -33 -1 -60 13 -98 19 -49 19 -56 6
-89 -18 -42 -12 -63 16 -63 25 0 25 -5 -1 -41 l-20 -29 19 -178 c12 -107 16
-184 11 -194 -11 -21 -12 -75 -1 -82 5 -3 21 8 37 24 15 15 37 31 50 34 27 7
37 53 24 101 -13 43 -10 138 4 155 7 8 33 26 60 38 89 44 160 9 229 -111 31
-53 54 -63 43 -19 -14 60 -148 363 -178 404 -18 25 -26 44 -72 173 -54 155
-89 236 -103 244 -10 6 -16 25 -17 59 -1 38 -8 58 -28 82 -24 28 -25 33 -12
46 8 9 18 26 21 40 9 36 42 30 89 -14 22 -21 51 -46 65 -55 15 -10 36 -43 53
-84 16 -37 35 -81 43 -96 8 -16 14 -33 14 -38 0 -16 41 -102 64 -134 12 -16
28 -48 35 -70 7 -22 35 -85 61 -140 26 -55 60 -129 75 -165 16 -36 36 -71 44
-78 34 -28 100 16 101 67 0 23 1 24 20 6 25 -22 25 -32 3 -38 -16 -4 -15 -6 4
-12 21 -7 38 -33 28 -43 -3 -3 -19 -5 -36 -5 -60 0 -95 -98 -58 -165 11 -21
22 -54 25 -74 4 -21 10 -38 14 -38 4 0 18 -31 31 -70 13 -38 28 -70 34 -70 5
1 46 20 90 44 65 35 81 48 83 70 2 14 7 26 11 26 11 0 61 -106 61 -129 0 -10
5 -32 11 -50 9 -25 8 -38 -5 -65 -9 -19 -16 -56 -16 -83 0 -27 -5 -54 -12 -61
-9 -9 -8 -39 1 -129 15 -134 28 -190 47 -197 19 -7 18 54 -1 101 -9 20 -13 45
-9 55 4 13 -1 24 -13 33 -29 23 -4 17 28 -6 18 -13 29 -29 29 -45 0 -15 6 -24
16 -24 12 0 15 -6 11 -21 -3 -12 -3 -18 0 -15 7 6 93 -74 93 -86 0 -5 -12 -8
-26 -8 -36 0 -64 -17 -64 -41 0 -11 -8 -32 -17 -46 l-17 -26 28 5 c24 5 29 1
37 -22 12 -32 48 -52 72 -39 13 8 19 0 33 -51 15 -55 19 -60 45 -60 16 0 49
10 73 22 43 20 45 21 71 4 20 -13 30 -15 38 -7 19 19 38 12 48 -19 6 -17 15
-30 19 -30 6 0 23 89 25 134 0 4 -29 19 -65 32 -36 14 -66 29 -68 34 -2 6 -9
10 -15 10 -7 0 -18 9 -25 20 -7 11 -19 20 -27 20 -8 0 -15 4 -15 9 0 4 -11 6
-25 3 -15 -2 -25 0 -25 7 0 6 7 11 15 11 8 0 15 5 15 10 0 6 -8 10 -18 10 -10
0 -36 18 -57 40 -33 34 -37 42 -25 50 9 6 10 10 3 10 -7 0 -1 12 12 26 24 25
26 26 72 14 27 -6 63 -19 82 -27 29 -14 38 -15 65 -3 38 16 92 16 113 -1 12
-11 17 -10 24 4 6 9 18 17 28 17 12 0 23 12 31 33 22 61 43 97 57 97 7 0 13 5
13 10 0 6 7 10 15 10 8 0 15 -7 15 -15 0 -9 6 -12 15 -9 18 7 18 10 0 -50 -8
-26 -12 -52 -10 -56 3 -5 1 -11 -5 -15 -13 -8 -13 -35 0 -35 6 0 10 7 10 16 0
9 6 22 13 28 12 10 23 56 53 229 7 44 21 44 43 -1 13 -25 22 -32 46 -32 17 0
47 -3 68 -6 32 -6 37 -4 38 12 0 11 3 14 6 7 2 -7 10 -13 17 -13 16 0 31 -119
16 -134 -5 -5 -65 -12 -132 -15 -107 -5 -123 -8 -123 -23 0 -10 -6 -23 -13
-30 -6 -6 -12 -18 -12 -25 0 -6 -21 -28 -46 -48 -38 -28 -50 -33 -61 -23 -12
10 -19 7 -34 -12 -10 -14 -17 -32 -16 -40 2 -8 -2 -26 -8 -40 -26 -54 -26 -77
-2 -107 13 -15 27 -40 31 -55 7 -30 26 -38 26 -12 0 8 5 12 10 9 6 -3 10 5 10
19 0 14 4 27 8 30 12 7 9 -39 -4 -55 -18 -23 -24 -48 -13 -54 5 -4 16 -21 23
-38 l14 -32 3 45 c1 25 3 66 4 93 1 37 6 51 24 63 22 16 30 31 56 103 l13 35
7 -42 c10 -59 24 -67 82 -48 26 8 68 18 93 21 25 4 76 13 113 22 38 8 90 13
118 11 43 -4 49 -3 49 14 0 24 -39 169 -49 183 -4 5 -14 36 -21 68 -12 50 -12
60 1 68 17 11 50 4 107 -23 72 -34 136 -46 219 -41 86 5 103 -2 105 -38 1 -30
33 -152 50 -190 14 -32 32 -31 79 4 32 23 49 16 49 -20 0 -21 2 -24 15 -13 8
7 15 19 15 26 0 8 9 14 20 14 17 0 20 -7 20 -39 0 -57 -11 -102 -24 -98 -6 2
-11 9 -11 14 0 6 -3 15 -7 19 -11 10 -10 -23 1 -60 6 -17 15 -69 21 -116 6
-47 14 -97 16 -113 5 -24 1 -29 -39 -46 -34 -15 -44 -24 -41 -38 4 -20 34
-255 43 -348 6 -58 7 -60 36 -61 17 -1 33 -2 37 -3 3 0 -2 -29 -13 -63 -22
-75 -22 -69 -6 -65 6 1 10 -5 8 -13 -3 -8 -6 -28 -7 -45 -1 -16 -3 -34 -4 -40
-2 -10 -6 -86 -11 -210 -1 -38 3 -104 9 -145 6 -41 9 -113 7 -160 -7 -139 -8
-133 24 -164 l26 -25 42 19 c64 28 70 50 28 96 -31 34 -38 37 -55 26 -18 -11
-21 -9 -29 10 -4 13 -7 147 -7 298 1 208 6 305 20 400 10 69 22 129 27 134 4
5 50 -32 106 -87 54 -53 120 -113 148 -134 69 -52 214 -146 250 -161 17 -8 50
-25 75 -40 46 -28 190 -85 317 -127 40 -13 85 -32 100 -43 16 -11 69 -38 118
-62 50 -23 104 -53 121 -65 17 -13 56 -28 88 -34 31 -6 61 -13 66 -16 21 -13
202 311 274 492 25 63 28 79 22 136 l-7 65 -57 34 c-101 62 -166 96 -221 118
-111 43 -247 114 -281 147 -19 18 -42 33 -51 33 -9 0 -22 7 -29 15 -15 18 -31
20 -26 3 1 -7 1 -10 -1 -5 -3 4 -9 7 -14 7 -6 0 -22 11 -37 25 -26 25 -26 25
-4 25 15 0 22 6 22 20 0 16 7 20 30 20 26 0 30 3 30 29 0 15 11 45 25 65 13
20 22 43 19 51 -9 23 -70 36 -102 22 -28 -13 -34 -28 -34 -89 1 -47 -16 -49
-45 -5 -12 17 -37 48 -55 67 -19 19 -67 73 -108 120 -91 103 -110 119 -129
112 -9 -4 -12 -1 -7 7 5 7 0 21 -10 32 -21 23 -36 25 -27 3 5 -14 3 -14 -16
-2 -17 10 -18 14 -6 16 8 2 15 7 15 11 0 9 -39 45 -62 57 -9 5 -47 38 -85 74
-78 75 -153 136 -153 124 0 -5 33 -39 73 -75 39 -37 69 -70 65 -74 -4 -4 -26
13 -51 37 -24 23 -65 62 -90 86 -26 24 -47 47 -47 53 0 14 11 11 26 -8 11 -15
13 -15 14 -3 0 17 -56 55 -63 43 -2 -5 -2 -2 -1 5 2 7 -5 16 -15 20 -11 4 -42
28 -70 55 -29 26 -60 47 -70 47 -10 0 -24 6 -30 14 -18 21 6 32 28 12 10 -9
23 -16 30 -16 6 0 46 -18 87 -40 41 -23 78 -38 83 -36 9 6 21 52 24 94 2 22
22 31 29 12 2 -5 14 -11 27 -12 18 -2 24 2 26 19 2 32 7 35 52 25 42 -10 73
-1 73 21 0 7 14 18 30 24 22 8 30 18 30 36 0 24 27 57 47 57 5 0 22 -11 37
-25 14 -13 26 -20 26 -15 0 6 13 10 28 10 15 0 33 5 40 12 8 8 18 9 35 1 19
-9 31 -8 53 4 50 26 85 33 107 21 18 -9 92 -17 192 -20 11 0 38 5 60 11 34 9
42 8 53 -6 11 -15 12 -14 12 8 0 13 -9 30 -20 36 -10 7 -25 32 -32 55 -6 24
-24 63 -38 88 -37 63 -60 125 -60 159 0 46 -35 117 -60 124 -19 5 -22 11 -16
37 3 20 0 42 -9 61 -10 19 -13 42 -9 69 4 27 3 40 -5 40 -6 0 -11 9 -11 20 0
11 3 19 8 18 8 -3 12 5 12 27 0 9 -12 18 -30 22 -37 7 -45 22 -53 89 -4 37
-13 59 -31 77 -14 15 -26 31 -26 38 0 7 -10 9 -28 6 -21 -4 -31 -1 -40 14 -10
16 -10 20 2 25 8 3 12 13 9 25 -3 10 0 19 6 19 17 0 13 92 -5 118 -8 12 -17
33 -18 45 -1 13 -10 34 -19 47 -9 14 -17 30 -17 37 0 7 -9 41 -21 76 -17 53
-27 66 -56 82 -83 45 -158 11 -169 -77 -6 -47 -8 -48 -40 -48 -31 0 -34 -3
-34 -30 0 -23 -5 -30 -19 -30 -30 0 -51 -11 -51 -26 0 -8 -6 -11 -17 -7 -10 4
-14 2 -10 -4 10 -16 -15 -22 -38 -9 -46 25 -55 37 -42 57 6 10 19 19 27 19 10
0 11 3 4 8 -15 10 -28 82 -14 82 5 0 10 19 10 43 0 56 11 71 47 65 26 -3 32 1
48 34 10 21 26 45 37 54 10 10 18 23 18 31 0 10 13 13 51 12 46 -2 53 0 75 29
14 17 31 29 38 26 8 -3 17 0 21 6 12 20 -5 60 -29 70 -22 8 -23 14 -25 96 -1
49 -7 91 -13 95 -5 4 -13 27 -15 53 -3 25 -10 46 -14 46 -5 0 -9 6 -9 14 0 14
-49 50 -116 84 -37 19 -43 19 -69 6 -15 -8 -40 -14 -55 -14 -15 0 -33 -7 -40
-15 -14 -17 -100 -17 -100 1 0 6 -7 25 -16 43 -12 24 -22 31 -38 29 -16 -2
-22 -11 -24 -40 -2 -20 2 -46 8 -58 6 -11 7 -20 2 -20 -5 0 -17 25 -27 55 -9
30 -21 55 -26 55 -5 0 -9 -31 -9 -70 0 -40 -4 -70 -10 -70 -5 0 -10 4 -10 9 0
6 -9 26 -21 45 -20 35 -21 35 -45 18 -13 -9 -24 -21 -24 -26 0 -4 -16 -30 -35
-56 -19 -26 -36 -57 -38 -68 -2 -12 -10 -29 -19 -39 -8 -10 -13 -24 -11 -30 3
-7 -2 -16 -11 -19 -11 -4 -16 -19 -16 -43 0 -39 -30 -143 -56 -192 -24 -48 -3
-60 34 -19 22 23 35 30 50 26 12 -4 18 -13 16 -24 -5 -22 16 -49 41 -53 30 -6
30 -37 1 -60 -26 -20 -35 -49 -16 -49 10 0 20 -7 78 -60 31 -28 32 -32 32
-105 0 -43 -4 -75 -10 -75 -5 0 -10 -17 -10 -37 -1 -50 -24 -82 -48 -66 -9 6
-16 16 -15 21 1 5 -6 8 -16 5 -13 -3 -22 -18 -26 -41 -4 -21 -6 -38 -6 -40 4
-8 -31 -62 -40 -62 -6 0 -9 -21 -7 -52 1 -38 -3 -61 -16 -81 -28 -42 -8 -132
43 -192 10 -11 24 -40 31 -65 8 -25 18 -51 23 -57 5 -7 6 -28 3 -47 -8 -41 30
-166 50 -166 7 0 15 -8 17 -17 4 -17 5 -17 6 0 0 9 7 17 14 17 21 0 43 48 30
61 -8 8 -9 19 -1 38 14 35 21 301 8 301 -17 0 -11 86 8 119 13 25 14 33 4 39
-9 6 -6 16 13 38 14 16 23 35 20 42 -2 6 3 12 12 12 9 0 13 -3 10 -6 -3 -4 5
-15 18 -26 20 -16 23 -23 15 -39 -8 -14 -7 -19 2 -19 7 0 19 -9 26 -20 18 -30
57 -25 82 10 33 47 79 37 66 -14 -4 -15 -15 -25 -33 -29 -16 -3 -41 -22 -57
-43 l-29 -37 17 -51 c17 -50 17 -54 -3 -116 -12 -35 -21 -73 -21 -84 -1 -12
-7 -32 -14 -45 -12 -21 -12 -31 1 -65 8 -23 16 -77 18 -121 8 -145 15 -184 41
-214 13 -16 24 -36 24 -46 0 -9 5 -26 12 -38 14 -28 19 -57 19 -130 0 -66 -5
-77 -32 -77 -15 0 -18 5 -13 24 7 30 -17 41 -39 16 -21 -25 -54 -15 -75 24
-15 29 -17 30 -20 8 -2 -13 -8 -19 -14 -16 -6 4 -17 -1 -24 -10 -11 -16 -19
-16 -73 -5 -34 6 -64 9 -68 5 -3 -3 5 -6 18 -7 l24 -1 -25 -8 -25 -8 28 -1
c16 -1 26 -5 23 -9 -3 -5 1 -20 9 -35 18 -35 12 -34 -30 5 -73 66 -140 80
-449 92 -71 3 -143 10 -160 15 -17 5 -70 11 -118 13 -76 4 -86 2 -83 -12 6
-30 -9 -41 -27 -21 -9 10 -12 24 -8 31 11 18 -36 100 -57 100 -7 0 -13 7 -13
15 0 7 -6 18 -13 22 -7 4 -28 28 -47 53 -18 25 -43 53 -54 62 -29 23 -51 147
-49 272 2 115 8 146 28 146 27 0 65 23 71 44 3 12 19 47 35 79 28 53 30 63 26
143 -4 69 -8 89 -26 108 -11 12 -21 27 -21 34 0 6 -9 16 -21 22 -19 11 -20 17
-14 108 3 53 7 109 9 125 1 15 3 36 4 46 1 11 8 26 15 33 33 32 -20 238 -60
238 -7 0 -13 9 -13 20 0 18 3 19 20 10 11 -6 20 -15 20 -20 0 -6 5 -10 11 -10
7 0 9 10 5 24 -3 14 -2 28 4 31 16 10 11 25 -8 25 -30 0 -34 12 -11 36 17 18
21 34 20 76 -1 29 -3 123 -4 208 -2 147 -4 158 -28 200 -15 25 -24 51 -21 58
3 11 0 12 -16 3 -12 -6 -24 -16 -27 -21 -3 -6 -23 -10 -44 -10 -20 0 -41 -4
-47 -9 -5 -5 -31 -13 -59 -16 -41 -6 -48 -5 -37 6 20 22 14 46 -17 59 -24 10
-40 9 -84 -4 -30 -9 -60 -22 -66 -30 -16 -19 -64 -30 -92 -21 -18 6 -20 12
-15 41 3 19 9 50 12 69 7 39 0 43 -34 19 -17 -12 -20 -19 -12 -29 8 -9 7 -20
-1 -38 -10 -22 -17 -25 -53 -22 -32 3 -48 11 -73 41 -34 39 -35 54 -2 54 22 0
23 1 8 34 -11 23 -49 39 -66 27z m537 -271 c0 -5 -4 -10 -10 -10 -5 0 -10 5
-10 10 0 6 5 10 10 10 6 0 10 -4 10 -10z m80 -115 c7 -8 18 -15 24 -15 13 0 9
-79 -5 -94 -5 -5 -1 -15 9 -22 16 -12 15 -13 -5 -14 -12 0 -25 5 -28 10 -4 6
-21 8 -41 4 -27 -5 -34 -3 -34 10 0 9 -6 16 -14 16 -27 0 -27 20 -1 44 15 14
24 29 21 35 -8 13 21 41 43 41 10 0 24 -7 31 -15z m-250 -45 c0 -29 -27 -45
-56 -33 -25 10 -14 55 16 65 26 9 40 -3 40 -32z m1946 -7 c7 -10 14 -24 14
-31 0 -8 10 -22 22 -32 20 -16 21 -21 10 -45 -10 -21 -17 -26 -36 -21 -18 4
-26 0 -37 -21 -8 -15 -22 -35 -31 -45 -10 -10 -18 -23 -18 -29 0 -10 -45 -59
-55 -59 -12 0 -16 85 -5 106 12 21 10 26 -11 43 -19 16 -22 23 -14 37 13 21
31 15 28 -8 -2 -10 -1 -18 2 -18 10 0 41 36 65 75 26 42 42 64 49 65 2 0 10
-8 17 -17z m-1832 -88 c18 -43 13 -61 -21 -70 -28 -7 -43 6 -43 37 0 9 -7 21
-17 26 -28 16 -8 42 32 42 30 0 37 -4 49 -35z m-1166 13 c-6 -18 -28 -21 -28
-4 0 9 7 16 16 16 9 0 14 -5 12 -12z m-235 -100 c7 -51 0 -108 -14 -108 -22 0
-40 129 -25 185 l8 30 12 -30 c7 -16 16 -51 19 -77z m102 18 c3 -11 5 -30 4
-41 -1 -11 -1 -41 -1 -67 2 -45 4 -48 30 -48 29 0 61 -28 54 -48 -2 -7 -19
-12 -37 -12 -41 0 -50 -12 -46 -67 2 -37 0 -43 -18 -43 -26 0 -41 28 -42 77 0
21 -4 47 -8 58 -5 12 -3 30 5 47 8 15 14 47 14 71 0 68 10 106 26 100 8 -3 17
-15 19 -27z m1496 -39 c19 -15 49 -70 49 -92 0 -25 -40 -17 -66 15 -15 17 -31
27 -39 23 -9 -3 -15 1 -15 10 0 9 -3 22 -6 30 -4 11 2 17 18 20 38 7 42 7 59
-6z m73 -240 c15 -24 -2 -34 -19 -11 -8 10 -15 23 -15 27 0 13 22 3 34 -16z
m-1336 -23 c2 -15 -6 -25 -29 -37 -18 -8 -38 -13 -46 -10 -22 8 -11 46 17 60
33 17 54 12 58 -13z m-33 -195 c-3 -4 -12 -6 -20 -2 -10 3 -15 -1 -15 -12 0
-9 -4 -13 -10 -10 -16 10 -11 33 8 37 22 6 43 -2 37 -13z m793 -146 c31 -3 65
-5 74 -4 10 1 28 -4 40 -10 13 -7 32 -12 43 -11 15 2 17 1 7 -6 -8 -5 -12 -13
-10 -18 3 -9 -80 -26 -92 -19 -4 3 -13 -2 -20 -10 -7 -8 -21 -15 -31 -15 -10
0 -21 -4 -24 -10 -3 -5 -18 -10 -32 -10 -15 0 -34 -7 -43 -15 -21 -19 -134
-33 -200 -25 -27 3 -51 8 -54 11 -10 10 8 71 23 76 9 3 25 14 36 24 11 10 43
27 70 38 51 21 68 21 213 4z m-843 -13 c-3 -5 -10 -10 -16 -10 -5 0 -9 5 -9
10 0 6 7 10 16 10 8 0 12 -4 9 -10z m43 -64 c6 -7 -11 -35 -25 -40 -24 -10
-63 5 -63 23 0 27 12 33 50 26 19 -4 36 -8 38 -9z m3280 -66 c17 0 15 -25 -3
-40 -8 -7 -12 -16 -9 -22 3 -5 0 -15 -6 -23 -9 -11 -8 -19 3 -36 19 -26 5 -65
-27 -75 -27 -9 -46 -29 -46 -48 0 -10 -9 -16 -24 -16 -53 0 -75 -28 -38 -49
15 -9 15 -12 2 -21 -28 -18 -38 -11 -38 31 -1 23 -8 49 -17 59 -14 15 -14 21
-3 39 7 12 18 21 25 21 20 0 15 20 -4 20 -10 0 -27 7 -37 15 -18 14 -18 15 0
42 10 15 19 37 19 48 0 15 6 19 22 17 12 -2 33 3 45 10 42 23 83 36 103 32 11
-2 26 -4 33 -4z m-2290 -92 c-2 -6 -10 -14 -16 -16 -7 -2 -10 2 -6 12 7 18 28
22 22 4z m-265 -68 c10 -18 19 -43 19 -54 1 -12 7 -28 14 -36 7 -8 14 -26 16
-40 2 -21 8 -25 33 -23 32 3 65 -21 65 -47 0 -22 -37 -40 -80 -38 -38 1 -152
-22 -160 -33 -3 -4 -19 -9 -35 -11 -27 -3 -30 0 -33 30 -2 17 -7 32 -13 32 -5
0 -9 -4 -9 -8 0 -13 -56 -72 -68 -72 -7 0 -12 -4 -12 -10 0 -5 -9 -10 -21 -10
-11 0 -28 -4 -37 -9 -11 -6 -31 -5 -55 2 -29 9 -40 20 -52 51 -21 50 -27 108
-19 176 6 44 8 50 15 32 5 -12 16 -22 26 -22 10 0 28 -7 40 -15 11 -8 46 -18
77 -21 50 -6 63 -4 109 21 70 37 95 61 103 99 9 42 10 43 36 41 14 -1 29 -14
41 -35z m-1073 -37 c0 -32 -5 -28 -14 10 -4 19 -3 26 4 22 5 -3 10 -18 10 -32z
m880 27 c0 -5 -9 -14 -20 -20 -22 -12 -23 -10 -14 14 7 17 34 22 34 6z m610
-51 c0 -65 -23 -104 -78 -130 -37 -18 -48 -20 -87 -10 -57 14 -55 15 -55 -11
0 -13 -5 -30 -11 -38 -8 -11 -9 -7 -4 18 7 34 -12 92 -30 92 -6 0 -11 8 -12
18 -1 9 -4 27 -8 40 -7 20 -4 22 33 22 22 0 53 5 69 11 41 17 124 37 156 38
26 1 27 -1 27 -50z m-982 -1 c2 -13 -14 -16 -47 -9 -2 1 2 8 9 16 15 18 34 15
38 -7z m2875 -79 c5 -4 11 -22 13 -40 2 -19 7 -42 10 -51 4 -15 -1 -18 -24
-18 -17 0 -32 -6 -35 -12 -4 -10 -7 -10 -17 -1 -11 10 -7 15 21 27 29 13 30
15 11 16 -14 0 -20 4 -17 10 4 6 1 18 -6 26 -9 11 -8 18 5 32 9 10 16 25 17
33 0 11 2 11 6 -1 3 -8 10 -18 16 -21z m-2828 -16 c-13 -12 -16 -31 -14 -77 3
-59 -3 -86 -20 -86 -12 0 -51 112 -44 123 4 6 11 0 16 -14 8 -22 10 -21 23 24
11 36 19 47 35 47 19 0 19 -1 4 -17z m2896 -130 c13 -34 -1 -68 -30 -76 -24
-6 -50 15 -52 41 -1 9 -2 24 -3 32 -1 17 18 28 52 29 16 1 26 -7 33 -26z
m-2199 -135 c-17 -17 -15 -38 3 -38 36 0 -6 -60 -64 -90 -67 -35 -261 16 -197
52 14 8 15 13 5 24 -6 8 -10 17 -7 20 3 2 43 9 89 14 67 8 142 20 179 29 2 1
-1 -4 -8 -11z m1875 -210 c7 -9 6 -24 -3 -45 -17 -40 -55 -53 -81 -28 -15 16
-16 18 0 27 9 5 17 15 17 21 0 32 48 49 67 25z m-2356 -101 c-1 -12 -15 -9
-19 4 -3 6 1 10 8 8 6 -3 11 -8 11 -12z m1161 -304 c-6 -31 -11 -25 -17 22 -4
33 -3 36 9 20 7 -10 11 -29 8 -42z m1068 27 c0 -5 -5 -10 -11 -10 -5 0 -7 5
-4 10 3 6 8 10 11 10 2 0 4 -4 4 -10z m330 -397 c0 -14 -2 -14 -20 2 -11 10
-20 22 -20 27 0 5 9 4 20 -2 11 -6 20 -18 20 -27z m60 -43 c0 -5 -2 -10 -4
-10 -3 0 -8 5 -11 10 -3 6 -1 10 4 10 6 0 11 -4 11 -10z m-2300 -86 c0 -8 -5
-12 -10 -9 -6 4 -8 11 -5 16 9 14 15 11 15 -7z m556 -31 c-10 -10 -19 5 -10
18 6 11 8 11 12 0 2 -7 1 -15 -2 -18z m2355 -542 c17 -16 18 -19 4 -24 -17 -7
-57 22 -49 35 8 13 23 9 45 -11z"/>
<path d="M2648 4693 c6 -2 18 -2 25 0 6 3 1 5 -13 5 -14 0 -19 -2 -12 -5z"/>
<path d="M4845 4510 c-3 -5 -1 -10 4 -10 6 0 11 5 11 10 0 6 -2 10 -4 10 -3 0
-8 -4 -11 -10z"/>
<path d="M4915 4460 c-16 -7 -17 -9 -3 -9 9 -1 20 4 23 9 7 11 7 11 -20 0z"/>
<path d="M4845 4370 c-3 -5 -1 -10 4 -10 6 0 11 5 11 10 0 6 -2 10 -4 10 -3 0
-8 -4 -11 -10z"/>
<path d="M2596 3965 c-11 -8 -34 -15 -50 -16 -28 0 -29 -1 -10 -10 23 -12 94
12 94 30 0 15 -11 13 -34 -4z"/>
<path d="M2641 5919 c-11 -29 -10 -30 17 -22 26 6 28 16 7 33 -12 10 -16 8
-24 -11z"/>
<path d="M3922 5685 c0 -16 2 -22 5 -12 2 9 2 23 0 30 -3 6 -5 -1 -5 -18z"/>
<path d="M3960 5685 c-6 -15 -8 -30 -6 -33 3 -3 10 8 16 23 6 15 8 30 6 33 -3
3 -10 -8 -16 -23z"/>
<path d="M3924 5629 c-3 -6 -1 -16 5 -22 8 -8 11 -5 11 11 0 24 -5 28 -16 11z"/>
<path d="M3843 5619 c-6 -6 -19 -12 -29 -13 -11 -1 -23 -12 -29 -24 -8 -19
-18 -22 -72 -22 -52 0 -64 -3 -73 -20 -8 -15 -7 -25 4 -43 26 -39 136 -24 136
19 0 7 6 17 13 21 19 12 80 93 70 93 -5 0 -14 -5 -20 -11z"/>
<path d="M3866 5515 c-22 -33 -20 -37 9 -23 14 6 25 19 25 30 0 25 -15 23 -34
-7z"/>
<path d="M1886 5392 c-9 -15 6 -52 21 -52 10 0 13 6 9 16 -3 9 -6 22 -6 30 0
15 -16 19 -24 6z"/>
<path d="M3891 5111 c-10 -22 -10 -34 -1 -51 17 -32 35 -18 33 26 -4 51 -17
62 -32 25z"/>
<path d="M679 5029 c-34 -45 -59 -94 -59 -116 0 -10 -5 -25 -10 -33 -7 -11 -8
-6 -4 18 4 17 4 32 1 32 -8 0 -86 -113 -154 -225 -71 -118 -190 -356 -233
-466 -32 -84 -33 -134 -4 -212 8 -21 12 -42 9 -47 -5 -8 32 -50 45 -50 3 0 14
-17 24 -37 17 -35 17 -37 -1 -47 -10 -6 -46 -9 -79 -7 -34 1 -65 -2 -68 -7 -3
-6 -15 -8 -25 -5 -12 3 -23 -2 -30 -15 -9 -18 -6 -20 47 -31 31 -7 83 -15 116
-19 57 -7 59 -8 99 -65 34 -48 38 -60 26 -68 -26 -16 -84 -10 -108 12 -19 18
-26 20 -45 9 -14 -7 -52 -10 -99 -8 l-75 3 -6 -35 c-55 -353 -52 -724 8 -1067
26 -147 31 -158 68 -159 18 -1 45 -5 59 -9 21 -5 32 -1 52 21 21 22 24 31 16
52 -6 14 -7 37 -4 52 3 15 1 39 -4 53 -14 36 -6 53 30 66 16 5 29 15 29 20 0
6 13 23 30 38 16 14 30 32 30 39 0 7 9 22 20 32 23 21 36 78 27 114 -4 13 -16
28 -29 33 -34 15 -35 43 -1 56 26 10 27 12 11 23 -10 7 -15 15 -12 18 3 3 -15
9 -40 12 -50 8 -111 44 -111 66 0 11 14 16 52 18 41 2 56 -1 72 -17 19 -19 22
-19 53 -4 18 9 27 18 21 20 -7 3 -10 10 -8 16 3 7 -16 25 -40 40 -35 22 -48
26 -64 18 -24 -14 -95 -14 -139 -2 -40 12 -96 57 -82 66 6 4 2 13 -10 23 -24
19 -18 52 8 52 13 0 14 12 8 80 -4 55 -3 80 4 80 6 0 8 5 5 11 -4 6 -14 8 -22
5 -11 -4 -13 -2 -9 9 3 8 1 15 -4 15 -6 0 -10 18 -10 40 0 49 -19 46 218 37
130 -5 162 -13 162 -42 0 -7 6 -18 14 -24 8 -7 17 -30 21 -52 5 -30 12 -40 31
-45 16 -4 26 -15 29 -33 3 -14 10 -40 15 -57 13 -40 13 -44 -5 -44 -29 0 -15
-18 18 -23 23 -3 38 1 54 15 14 13 28 18 41 14 21 -7 36 16 30 45 -2 9 8 15
24 17 26 3 37 -5 72 -53 11 -16 17 -17 27 -8 15 14 15 36 0 188 -8 82 -8 129
-1 150 10 32 9 67 -10 230 -6 50 -11 97 -11 105 -1 12 -12 179 -23 338 -2 18
1 35 5 37 7 5 -22 109 -34 121 -4 4 -7 20 -7 35 0 33 -35 46 -61 23 -15 -14
-18 -13 -32 6 -11 15 -16 18 -20 8 -4 -9 -6 -7 -6 5 -1 16 3 18 39 21 10 1 14
10 11 26 -6 43 -5 123 2 177 l7 53 -35 14 c-42 18 -48 41 -7 32 20 -5 23 -4
12 4 -12 8 -11 10 6 10 12 0 27 7 34 15 21 26 38 99 31 139 l-6 39 -26 -34z
m-64 -269 c8 -13 -5 -13 -25 0 -13 8 -13 10 2 10 9 0 20 -4 23 -10z m-75 -23
c-26 -14 -54 -11 -44 4 3 5 20 9 37 9 l32 0 -25 -13z m50 -187 c0 -5 -4 -10
-10 -10 -5 0 -10 5 -10 10 0 6 5 10 10 10 6 0 10 -4 10 -10z m50 -60 c16 0 17
-8 14 -72 -4 -63 -8 -76 -30 -95 -14 -13 -21 -23 -16 -23 12 0 4 -46 -14 -87
-17 -38 -27 -41 -47 -13 -8 11 -17 17 -21 12 -4 -4 -13 -7 -19 -7 -7 0 -13
-15 -15 -32 -2 -19 1 -33 7 -33 6 0 11 -6 11 -14 0 -7 14 -16 30 -20 35 -6 49
-34 57 -111 6 -56 -5 -73 -48 -77 -28 -2 -75 26 -90 53 -5 11 -15 19 -22 19
-27 0 -47 60 -47 144 0 68 -3 86 -20 104 -20 21 -29 79 -10 67 6 -3 22 7 36
24 14 17 33 31 42 32 14 0 13 2 -3 9 -15 6 -16 9 -4 9 9 1 38 21 65 46 27 24
56 45 65 45 8 0 24 8 35 19 10 10 21 14 22 10 2 -5 12 -9 22 -9z m-320 -175
c0 -8 -9 -15 -20 -15 -20 0 -26 11 -13 23 12 13 33 7 33 -8z m380 -520 c10
-12 9 -16 -5 -21 -22 -9 -70 16 -53 28 20 12 44 9 58 -7z m-553 -181 c-3 -3
-12 -4 -19 -1 -8 3 -5 6 6 6 11 1 17 -2 13 -5z m96 -491 c-7 -2 -19 -2 -25 0
-7 3 -2 5 12 5 14 0 19 -2 13 -5z m142 -23 c-3 -5 -10 -10 -16 -10 -5 0 -9 5
-9 10 0 6 7 10 16 10 8 0 12 -4 9 -10z"/>
<path d="M3320 5038 c0 -16 5 -28 10 -28 13 0 13 20 0 40 -8 12 -10 9 -10 -12z"/>
<path d="M5165 4961 c-7 -13 12 -51 25 -51 6 0 10 8 10 19 0 23 -25 46 -35 32z"/>
<path d="M3493 4905 c-10 -17 -35 -21 -70 -10 -29 9 -31 -10 -3 -25 13 -7 20
-21 20 -40 0 -16 4 -31 9 -35 5 -3 13 -20 16 -38 10 -41 58 -147 67 -147 5 0
7 5 6 12 -2 7 11 15 27 18 26 5 30 10 28 35 -4 49 -11 69 -35 95 -18 19 -23
36 -23 84 0 49 -3 61 -17 64 -9 2 -20 -4 -25 -13z"/>
<path d="M5100 4913 c0 -14 19 -38 25 -32 8 8 -5 39 -16 39 -5 0 -9 -3 -9 -7z"/>
<path d="M3560 4565 c-16 -19 38 -175 61 -175 10 0 3 88 -10 136 -12 45 -33
61 -51 39z"/>
<path d="M3480 4419 c0 -5 5 -7 10 -4 6 3 10 8 10 11 0 2 -4 4 -10 4 -5 0 -10
-5 -10 -11z"/>
<path d="M3621 4364 c0 -11 3 -14 6 -6 3 7 2 16 -1 19 -3 4 -6 -2 -5 -13z"/>
<path d="M3495 4249 c-4 -13 -13 -27 -19 -31 -7 -5 -4 -8 7 -8 9 0 20 -1 24
-2 10 -4 13 34 4 51 -7 11 -10 9 -16 -10z"/>
<path d="M3646 3789 c-31 -36 -33 -55 -7 -69 31 -16 64 -13 57 6 -3 9 -6 33
-6 55 0 47 -10 49 -44 8z"/>
<path d="M5818 3739 c-26 -14 -22 -26 7 -26 18 0 25 5 25 18 0 21 -7 23 -32 8z"/>
<path d="M1404 3645 c-15 -28 -16 -40 -8 -64 10 -24 8 -31 -6 -44 -10 -8 -27
-18 -37 -21 -11 -4 -29 -22 -39 -41 -13 -26 -25 -35 -44 -35 -14 0 -34 -7 -44
-15 -16 -12 -17 -17 -6 -30 7 -8 25 -15 40 -15 39 0 50 -18 51 -89 2 -58 3
-61 23 -55 11 4 33 16 48 27 21 16 35 18 68 13 33 -5 46 -2 70 16 35 26 37 36
10 88 -11 22 -20 51 -20 66 0 33 -58 203 -75 220 -10 10 -16 6 -31 -21z"/>
<path d="M3630 3627 c0 -7 6 -21 13 -31 12 -16 14 -16 26 -2 11 13 11 19 1 31
-15 18 -40 20 -40 2z"/>
<path d="M4010 3596 c0 -34 10 -56 24 -56 7 0 13 7 13 15 0 8 -4 15 -9 15 -5
0 -8 6 -7 13 3 23 -1 37 -11 37 -5 0 -10 -11 -10 -24z"/>
<path d="M3299 3592 c20 -37 41 -45 129 -48 48 -1 107 -7 132 -12 25 -6 110
-13 190 -16 148 -5 141 1 -24 23 -38 5 -72 14 -75 19 -3 5 -51 12 -106 15 -55
4 -125 13 -155 22 -30 8 -65 15 -78 15 -19 0 -21 -3 -13 -18z"/>
<path d="M3948 3513 c12 -2 30 -2 40 0 9 3 -1 5 -23 4 -22 0 -30 -2 -17 -4z"/>
<path d="M5479 3359 c-11 -11 -18 -27 -15 -36 3 -8 9 -26 12 -39 3 -13 11 -24
18 -24 6 0 5 -4 -3 -9 -8 -5 -20 -7 -28 -4 -7 3 -13 2 -13 -1 0 -13 35 -44 57
-50 19 -6 25 -2 33 19 6 15 20 29 31 32 18 5 20 11 15 46 -5 28 -3 43 6 50 9
6 8 7 -4 3 -11 -3 -22 2 -28 14 -14 26 -54 26 -81 -1z m41 -139 c0 -5 -4 -10
-10 -10 -5 0 -10 5 -10 10 0 6 5 10 10 10 6 0 10 -4 10 -10z"/>
<path d="M2160 3273 c-52 -40 -115 -89 -140 -108 -25 -19 -50 -35 -56 -35 -6
0 -17 -7 -25 -16 -7 -8 -29 -24 -48 -34 -40 -21 -75 -46 -99 -72 -9 -10 -22
-18 -29 -18 -7 0 -13 -4 -13 -10 0 -5 -10 -19 -22 -31 -20 -19 -20 -20 -3 -11
18 10 38 25 95 74 8 7 18 12 22 11 17 -6 178 78 249 129 42 31 97 63 122 73
44 17 45 18 49 67 1 27 1 51 -2 52 -3 2 -48 -30 -100 -71z m35 -32 c-3 -6 -13
-11 -21 -11 -8 0 -14 -4 -14 -10 0 -5 -4 -10 -10 -10 -18 0 -10 15 17 32 29
17 40 17 28 -1z"/>
<path d="M4717 3343 c-2 -5 -7 -20 -11 -34 -8 -38 22 -49 46 -17 15 20 15 24
3 34 -8 6 -12 14 -8 17 3 4 -1 7 -10 7 -9 0 -18 -3 -20 -7z"/>
<path d="M1926 3265 c-10 -49 2 -65 33 -46 11 7 11 15 1 45 -15 45 -26 46 -34
1z"/>
<path d="M4858 3268 c-6 -16 16 -38 36 -38 13 0 14 4 4 25 -12 27 -34 33 -40
13z"/>
<path d="M2240 3210 c-8 -5 -31 -16 -50 -25 -19 -8 -53 -31 -75 -50 -22 -20
-91 -61 -155 -92 -63 -30 -137 -72 -165 -92 -27 -20 -58 -40 -68 -46 -11 -5
-19 -14 -18 -18 1 -5 -15 -18 -36 -29 -41 -22 -86 -59 -79 -66 2 -2 16 4 30
14 15 9 29 14 33 10 3 -3 1 -6 -6 -6 -8 0 -11 -6 -7 -16 4 -11 1 -14 -12 -10
-20 6 -128 -56 -125 -73 4 -15 -3 -14 -22 5 -15 15 -16 15 -10 -8 4 -16 -2
-35 -18 -59 -13 -19 -29 -57 -36 -84 -15 -61 -16 -430 -1 -685 12 -223 13
-412 0 -444 -6 -18 -14 -24 -26 -19 -10 3 -6 -4 9 -19 24 -24 25 -30 26 -157
2 -167 -3 -195 -37 -211 l-27 -13 25 -6 25 -7 -1 -154 c-1 -85 -3 -197 -5
-249 l-4 -94 85 -54 c93 -58 389 -208 431 -218 25 -6 27 -4 34 35 8 49 25 91
102 251 l56 117 -22 68 c-11 37 -21 72 -21 79 0 6 33 16 78 22 64 10 296 74
308 85 1 2 -1 21 -6 43 -5 22 -10 60 -11 85 -1 25 -8 59 -15 75 -12 29 -28 96
-39 159 -7 46 -24 58 -65 45 -19 -6 -62 -15 -95 -20 -145 -23 -129 -13 -153
-96 -11 -42 -16 -95 -15 -188 1 -141 -12 -135 -23 10 -10 123 17 270 66 371
35 71 40 89 40 151 0 57 -4 73 -20 88 -39 35 -26 57 55 95 83 39 80 32 66 140
-9 67 -42 155 -61 162 -8 2 -8 11 -1 30 6 17 7 29 1 33 -6 4 -10 2 -10 -2 0
-17 -63 -45 -108 -49 -26 -2 -56 -5 -66 -6 -16 -3 -23 10 -40 73 -21 76 -48
126 -115 209 -60 76 -82 110 -76 120 3 5 0 7 -8 4 -12 -4 -87 78 -87 96 0 3
16 23 35 44 19 21 32 42 29 48 -8 12 23 58 40 58 18 0 54 -92 38 -98 -15 -5
-15 -35 -1 -49 6 -6 8 -24 4 -41 -5 -23 -10 -29 -26 -25 -24 7 -24 -5 0 -34
24 -28 35 -29 60 -2 17 19 28 21 78 17 65 -6 125 10 183 48 35 23 38 30 49 99
16 96 6 206 -22 242 -20 25 -20 26 -1 61 26 50 73 102 91 102 8 0 30 7 49 16
30 14 33 19 27 47 -3 18 -10 37 -15 44 -5 6 -12 37 -15 67 -6 58 -8 61 -33 46z
m-161 -1523 c0 -21 -1 -21 -9 -2 -12 28 -12 37 0 30 6 -3 10 -16 9 -28z"/>
<path d="M5720 3200 c0 -11 4 -20 9 -20 11 0 22 26 14 34 -12 12 -23 5 -23
-14z"/>
<path d="M326 3203 c-11 -11 -6 -23 9 -23 8 0 15 4 15 9 0 13 -16 22 -24 14z"/>
<path d="M1600 3175 c-6 -8 -22 -17 -33 -21 -12 -3 -32 -15 -44 -27 -12 -11
-33 -25 -45 -31 -13 -6 -29 -24 -37 -40 -7 -16 -22 -31 -32 -33 -11 -3 -19 -8
-20 -12 0 -3 -2 -17 -3 -30 -2 -14 -8 -27 -14 -29 -7 -2 -21 -11 -33 -21 -21
-16 -21 -19 -5 -49 9 -17 16 -53 16 -80 l0 -49 59 1 c57 2 62 4 103 47 24 25
78 72 121 104 106 79 118 131 48 211 -17 19 -31 41 -31 48 0 8 -7 17 -16 20
-21 8 -20 8 -34 -9z"/>
<path d="M5725 3164 c-12 -12 -13 -19 -4 -30 23 -28 66 -4 53 30 -8 20 -28 21
-49 0z"/>
<path d="M538 3093 c7 -3 16 -2 19 1 4 3 -2 6 -13 5 -11 0 -14 -3 -6 -6z"/>
<path d="M5760 3041 c0 -12 4 -21 9 -21 5 0 12 -16 15 -36 7 -32 29 -54 42
-41 3 3 -3 30 -14 59 -20 54 -52 78 -52 39z"/>
<path d="M610 2930 c0 -5 4 -10 9 -10 6 0 13 5 16 10 3 6 -1 10 -9 10 -9 0
-16 -4 -16 -10z"/>
<path d="M1650 2900 c-9 -6 -10 -10 -3 -10 6 0 15 5 18 10 8 12 4 12 -15 0z"/>
<path d="M5762 2848 c-16 -16 -15 -28 3 -28 8 0 15 6 15 14 0 8 6 17 13 19 8
4 7 6 -3 6 -9 1 -21 -4 -28 -11z"/>
<path d="M5228 2833 c-22 -24 -24 -89 -4 -96 9 -4 16 3 20 18 4 14 15 29 26
35 21 11 27 44 10 55 -5 3 -10 -1 -10 -9 0 -21 -18 -21 -22 0 -3 14 -5 14 -20
-3z"/>
<path d="M5467 2787 c-3 -8 -1 -20 4 -28 11 -19 32 2 23 24 -7 20 -20 22 -27
4z"/>
<path d="M5940 2679 c0 -40 16 -69 38 -68 10 0 12 3 5 6 -16 6 -17 45 -1 61
18 18 25 15 32 -18 5 -26 1 -35 -28 -60 -37 -33 -53 -95 -34 -136 12 -26 38
-33 38 -9 0 36 110 177 140 181 6 1 14 2 19 3 5 0 12 8 15 17 5 14 -1 15 -46
11 -29 -3 -62 -8 -73 -13 -18 -7 -19 -6 -5 10 13 16 12 20 -5 32 -10 8 -36 14
-57 14 -36 0 -38 -2 -38 -31z"/>
<path d="M5570 2670 c0 -5 7 -10 16 -10 8 0 12 5 9 10 -3 6 -10 10 -16 10 -5
0 -9 -4 -9 -10z"/>
<path d="M2928 2656 c-21 -16 -5 -36 27 -35 19 0 19 1 1 8 -14 5 -16 10 -8 15
13 8 16 26 5 26 -5 0 -16 -6 -25 -14z"/>
<path d="M1367 2594 c-33 -33 -34 -44 -3 -44 18 0 25 7 30 32 8 41 4 43 -27
12z"/>
<path d="M1769 2619 c-8 -47 -7 -60 7 -55 9 3 18 6 20 6 10 0 2 29 -11 40 -8
7 -15 11 -16 9z"/>
<path d="M6113 2531 c-10 -26 -6 -71 7 -71 13 0 20 47 11 72 l-9 23 -9 -24z"/>
<path d="M3575 2529 c-21 -5 -71 -14 -110 -19 -72 -9 -119 -19 -191 -39 l-41
-11 18 -89 c16 -79 28 -209 29 -308 0 -31 2 -33 38 -33 l38 0 12 -57 c6 -32
14 -97 18 -145 4 -47 10 -91 14 -98 9 -14 42 5 94 54 18 17 47 44 64 59 l31
28 -52 67 c-29 37 -60 75 -69 84 -10 10 -18 22 -18 26 0 5 -12 22 -27 39 -16
17 -39 44 -52 59 -26 29 -67 193 -57 221 3 7 20 13 38 13 18 0 82 7 142 15 60
7 122 11 137 8 16 -3 40 -2 55 1 24 6 26 10 20 44 -17 96 -15 92 -54 91 -20
-1 -55 -5 -77 -10z"/>
<path d="M1740 2494 c0 -8 5 -12 10 -9 6 3 10 10 10 16 0 5 -4 9 -10 9 -5 0
-10 -7 -10 -16z"/>
<path d="M6047 2484 c-10 -11 -9 -72 3 -79 14 -8 24 42 14 66 -5 11 -13 17
-17 13z"/>
<path d="M690 2469 c0 -4 16 -7 35 -6 19 1 35 4 35 9 0 4 -16 7 -35 6 -19 -1
-35 -5 -35 -9z"/>
<path d="M524 2420 c-4 -22 -10 -40 -15 -40 -5 0 -9 -7 -9 -15 0 -8 -9 -15
-19 -15 -10 0 -21 7 -25 15 -7 20 -42 19 -74 -3 -29 -20 -29 -20 -84 -9 -38 8
-71 -3 -94 -32 -6 -8 -28 -14 -50 -15 -35 -1 -39 -3 -36 -25 3 -33 8 -36 37
-23 14 7 34 12 44 12 10 0 29 11 42 24 17 17 38 25 69 27 58 4 88 -14 82 -50
-11 -56 -56 -78 -165 -83 l-84 -3 37 -110 c45 -132 109 -285 158 -377 36 -67
37 -68 78 -68 42 0 43 1 68 54 14 30 26 60 26 65 0 16 55 71 70 71 25 0 58 47
53 74 -3 14 0 33 7 41 14 17 50 20 50 5 0 -7 7 -7 21 0 16 9 19 18 14 37 -6
25 -5 25 32 19 21 -4 47 -17 58 -30 11 -13 30 -27 41 -30 21 -6 22 -2 28 71 4
46 3 93 -4 113 -5 19 -10 47 -10 62 0 33 -14 36 -37 8 -23 -26 -27 -25 -48 7
-17 26 -17 27 6 46 23 19 24 19 41 -4 24 -28 32 -19 22 23 -4 18 -8 40 -8 49
-1 9 -20 37 -43 63 -24 27 -43 52 -43 57 0 11 -63 -1 -71 -14 -4 -5 -21 -8
-38 -5 -24 4 -35 0 -42 -14 -15 -29 -27 -21 -34 22 -5 30 -11 40 -26 40 -14 0
-20 -10 -25 -40z m116 -55 c-7 -8 -16 -15 -21 -15 -5 0 -9 7 -9 15 0 9 9 15
21 15 18 0 19 -2 9 -15z m-190 -7 c0 -7 -4 -19 -9 -27 -11 -17 -25 3 -17 24 7
18 26 20 26 3z"/>
<path d="M3945 2413 c-22 -1 -77 -5 -122 -9 l-82 -6 17 -33 c9 -19 25 -36 34
-38 14 -4 48 -47 123 -154 9 -13 20 -23 25 -23 6 0 43 33 83 73 77 75 93 107
81 167 -6 29 -8 30 -63 28 -31 -1 -74 -3 -96 -5z"/>
<path d="M1357 2403 c-12 -11 -8 -23 8 -23 8 0 15 7 15 15 0 16 -12 20 -23 8z"/>
<path d="M2795 2360 c-27 -10 -76 -24 -109 -30 l-58 -12 5 -36 c19 -121 60
-333 72 -367 11 -35 17 -40 42 -39 15 1 37 4 48 8 11 3 41 11 68 17 54 12 55
14 36 153 -5 45 -15 135 -22 200 -7 66 -16 121 -22 122 -5 2 -32 -6 -60 -16z"/>
<path d="M1332 2267 c-48 -26 -92 -85 -71 -98 15 -9 96 30 120 57 12 14 14 25
8 42 -4 12 -10 22 -11 22 -2 -1 -22 -11 -46 -23z"/>
<path d="M3690 2279 c0 -5 5 -7 10 -4 6 3 10 8 10 11 0 2 -4 4 -10 4 -5 0 -10
-5 -10 -11z"/>
<path d="M1245 2070 c-19 -8 -19 -9 3 -9 12 -1 22 4 22 9 0 6 -1 10 -2 9 -2 0
-12 -4 -23 -9z"/>
<path d="M2998 2023 c7 -3 16 -2 19 1 4 3 -2 6 -13 5 -11 0 -14 -3 -6 -6z"/>
<path d="M2415 1961 c-14 -23 -25 -52 -25 -65 0 -14 -5 -28 -10 -31 -14 -8
-60 -81 -60 -94 0 -5 13 -4 30 2 17 6 30 16 30 21 0 5 11 24 24 41 14 18 27
43 29 56 2 13 6 31 10 39 25 68 8 87 -28 31z"/>
<path d="M1255 1980 c-3 -5 -1 -10 4 -10 6 0 11 5 11 10 0 6 -2 10 -4 10 -3 0
-8 -4 -11 -10z"/>
<path d="M1210 1923 c1 -27 26 -57 36 -42 4 7 2 15 -4 17 -7 2 -12 10 -12 17
0 8 -4 17 -10 20 -5 3 -10 -2 -10 -12z"/>
<path d="M1286 1892 c-4 -11 0 -32 9 -48 8 -16 18 -46 21 -66 7 -44 16 -47 32
-15 23 46 18 85 -13 97 -14 5 -25 16 -25 24 0 23 -18 28 -24 8z"/>
<path d="M3004 1849 c-17 -24 -20 -37 -14 -69 6 -31 4 -40 -6 -40 -8 0 -14 -7
-14 -16 0 -10 6 -14 15 -10 8 3 15 2 15 -3 0 -5 -12 -12 -26 -15 l-26 -7 4
-97 c3 -93 2 -97 -19 -100 -11 -2 -45 -15 -75 -30 l-53 -27 -6 -70 c-4 -39
-16 -97 -29 -130 -12 -33 -24 -95 -27 -137 l-6 -78 59 1 c32 0 93 6 134 13
l75 12 -3 84 c-1 47 -5 101 -8 120 -5 38 10 60 59 85 16 8 22 20 22 45 0 18 6
35 13 37 6 3 12 -2 12 -11 0 -9 5 -16 10 -16 6 0 10 4 10 8 0 5 11 14 25 20
31 15 32 33 4 206 -21 130 -38 190 -39 134 0 -15 -4 -30 -10 -33 -6 -4 -7 6
-4 24 5 23 2 32 -10 37 -9 3 -16 15 -16 25 0 20 -28 69 -39 69 -3 0 -15 -14
-27 -31z"/>
<path d="M954 1825 c-24 -37 -49 -48 -74 -33 -18 11 -23 10 -34 -4 -7 -10 -19
-18 -25 -18 -20 0 -91 -77 -91 -98 0 -11 -6 -38 -14 -60 -12 -32 -13 -56 -5
-109 5 -37 7 -80 3 -96 -3 -15 -1 -33 5 -40 12 -16 3 -57 -13 -57 -17 0 -61
-50 -45 -51 8 0 4 -4 -9 -10 l-23 -9 22 -32 c78 -109 266 -315 277 -303 3 3 1
52 -5 108 -6 57 -7 128 -3 162 4 33 5 81 2 107 -5 46 -1 56 40 96 28 28 47 42
57 42 5 0 19 13 29 28 11 15 32 34 46 42 14 7 26 18 26 23 0 5 -5 5 -13 -1 -7
-6 -46 -24 -87 -41 -61 -25 -75 -34 -73 -51 2 -18 0 -19 -17 -8 -11 7 -22 19
-25 26 -3 7 -2 74 2 148 6 130 7 136 34 162 25 25 49 70 49 93 0 18 -20 9 -36
-16z m-108 -332 c-11 -11 -19 6 -11 24 8 17 8 17 12 0 3 -10 2 -21 -1 -24z"/>
<path d="M1090 1835 c0 -8 -7 -15 -16 -15 -9 0 -13 -5 -10 -12 3 -7 9 -21 12
-30 4 -10 11 -18 16 -18 6 0 7 7 4 16 -4 10 1 22 10 29 10 7 15 19 11 29 -8
20 -27 21 -27 1z"/>
<path d="M2951 1724 c0 -11 3 -14 6 -6 3 7 2 16 -1 19 -3 4 -6 -2 -5 -13z"/>
<path d="M1166 1717 c-17 -12 -17 -14 1 -45 10 -17 26 -32 35 -32 23 0 41 36
34 66 -7 27 -41 33 -70 11z"/>
<path d="M4147 1685 c-15 -11 -16 -13 -2 -19 9 -3 18 1 22 10 8 21 1 25 -20 9z"/>
<path d="M4106 1644 c-18 -18 -21 -34 -5 -34 5 0 8 4 4 9 -3 5 5 17 17 25 12
9 17 16 11 16 -6 0 -19 -7 -27 -16z"/>
<path d="M4307 1624 c-9 -10 12 -34 30 -34 19 0 12 34 -8 38 -8 1 -18 0 -22
-4z"/>
<path d="M3357 1583 c-12 -3 -16 -11 -12 -29 3 -13 7 -34 10 -46 2 -13 9 -84
15 -158 5 -74 13 -155 16 -179 l7 -43 71 6 c39 4 121 15 181 26 61 11 131 22
158 25 l47 6 -6 62 c-7 77 -11 109 -20 170 -5 38 -4 47 9 47 18 0 67 39 49 40
-7 0 -22 -5 -34 -11 -27 -15 -230 24 -393 75 -51 16 -66 17 -98 9z"/>
<path d="M1227 1562 c-17 -19 -14 -32 9 -32 6 0 14 11 16 25 6 30 -3 32 -25 7z"/>
<path d="M4422 1569 c2 -6 8 -10 13 -10 5 0 11 4 13 10 2 6 -4 11 -13 11 -9 0
-15 -5 -13 -11z"/>
<path d="M460 1493 c0 -4 9 -21 20 -38 l20 -30 0 28 c0 15 1 30 3 35 1 4 -8 8
-20 10 -13 2 -23 0 -23 -5z"/>
<path d="M5062 1439 c-10 -16 -19 -19 -39 -14 -23 5 -25 4 -14 -9 16 -19 89
-32 104 -17 8 8 7 18 -3 36 -16 30 -31 32 -48 4z"/>
<path d="M5282 1422 c-7 -5 -10 -16 -6 -25 8 -23 24 -21 24 2 0 11 8 22 18 24
14 4 14 5 -3 6 -11 0 -26 -3 -33 -7z"/>
<path d="M510 1411 c0 -5 9 -19 20 -32 l19 -24 -12 33 c-10 30 -27 44 -27 23z"/>
<path d="M561 1333 c7 -10 15 -20 16 -22 2 -2 3 3 3 11 0 9 -7 19 -16 22 -15
6 -15 4 -3 -11z"/>
<path d="M4261 954 c0 -11 3 -14 6 -6 3 7 2 16 -1 19 -3 4 -6 -2 -5 -13z"/>
<path d="M4270 826 c0 -9 7 -12 20 -9 31 8 34 23 6 23 -16 0 -26 -6 -26 -14z"/>
<path d="M4272 740 c0 -19 2 -27 5 -17 2 9 2 25 0 35 -3 9 -5 1 -5 -18z"/>
<path d="M3765 719 c-49 -5 -121 -13 -160 -18 -38 -6 -92 -13 -119 -17 l-48
-7 5 -46 c4 -25 11 -118 17 -206 14 -192 16 -205 35 -205 10 0 15 -11 15 -34
0 -19 5 -38 10 -41 6 -4 10 11 10 38 l0 43 113 17 c61 10 152 22 202 28 49 5
91 12 93 14 8 8 -43 419 -54 436 -3 5 -11 8 -17 8 -7 -1 -52 -6 -102 -10z"/>
<path d="M3115 680 c-14 -16 -16 -23 -7 -32 15 -15 35 2 37 32 2 25 -7 25 -30
0z"/>
<path d="M4480 651 c0 -30 21 -81 31 -75 13 8 11 68 -3 82 -17 17 -28 15 -28
-7z"/>
<path d="M2989 586 c-2 -3 -42 -6 -89 -7 -131 -3 -124 3 -115 -98 4 -47 9
-117 11 -156 2 -38 6 -103 9 -142 7 -73 7 -73 36 -73 24 0 174 30 228 46 9 3
11 12 7 29 -4 14 -2 34 4 45 5 10 6 21 2 24 -5 3 -10 22 -11 43 -1 21 -7 94
-14 163 -12 123 -13 125 -37 128 -14 2 -28 1 -31 -2z"/>
<path d="M4240 511 c-8 -16 -6 -21 10 -26 25 -8 26 -25 3 -26 -13 0 -14 -2 -4
-6 18 -7 41 23 41 54 0 29 -35 32 -50 4z"/>
<path d="M4368 503 c7 -3 16 -2 19 1 4 3 -2 6 -13 5 -11 0 -14 -3 -6 -6z"/>
<path d="M4260 385 c-8 -9 -8 -15 -2 -15 18 0 42 12 42 21 0 14 -26 10 -40 -6z"/>
<path d="M2258 377 c-45 -10 -48 -12 -48 -42 0 -18 -9 -43 -19 -57 -15 -19
-20 -38 -18 -82 2 -57 2 -57 30 -52 16 3 26 2 22 -4 -5 -8 81 -40 107 -40 9 0
2 83 -12 137 -6 25 -2 44 21 92 l28 61 -32 -1 c-18 -1 -53 -6 -79 -12z"/>
<path d="M3520 70 c0 -5 5 -10 11 -10 5 0 7 5 4 10 -3 6 -8 10 -11 10 -2 0 -4
-4 -4 -10z"/>
</g>
</svg>
